<?xml version="1.0" encoding="iso-8859-1"?>
<!-- Generator: Adobe Illustrator 19.0.0, SVG Export Plug-In . SVG Version: 6.00 Build 0)  -->
<svg version="1.1" id="Capa_1" xmlns="http://www.w3.org/2000/svg" xmlns:xlink="http://www.w3.org/1999/xlink" x="0px" y="0px"
	 viewBox="0 0 512 512" style="enable-background:new 0 0 512 512;" xml:space="preserve">
<path style="fill:#7C8287;" d="M351.854,70.239v371.512c0,46.123-83.751,70.249-166.472,70.249h-0.01
	c-82.732,0-166.472-24.126-166.472-70.249V70.239c0-8.275,6.716-14.991,14.991-14.991h151.481c75.766,0,151.491,0,151.491,0
	C345.138,55.248,351.854,61.964,351.854,70.239z"/>
<path style="fill:#596C76;" d="M351.854,70.239v371.512c0,46.123-83.751,70.249-166.472,70.249h-0.01V55.248
	c75.766,0,151.491,0,151.491,0C345.138,55.248,351.854,61.964,351.854,70.239z"/>
<g>
	<path style="fill:#DCE6EB;" d="M351.854,70.239c0,46.123-83.751,70.249-166.472,70.249h-0.01
		c-82.732,0-166.472-24.126-166.472-70.249C18.899,24.126,102.64,0,185.371,0h0.01C268.103,0,351.854,24.126,351.854,70.239z"/>
	<path style="fill:#DCE6EB;" d="M351.854,173.668v85.77c0,46.113-83.751,70.249-166.472,70.249h-0.01
		c-82.732,0-166.472-24.136-166.472-70.249v-93.245c0,46.113,83.741,70.249,166.472,70.249h0.01
		C263.386,236.441,343.119,214.784,351.854,173.668z"/>
	<path style="fill:#DCE6EB;" d="M351.854,356.281v85.47c0,46.123-83.751,70.249-166.472,70.249h-0.01
		c-82.732,0-166.472-24.126-166.472-70.249v-92.956c0,46.113,83.741,70.249,166.472,70.249h0.01
		C263.386,419.044,343.119,397.397,351.854,356.281z"/>
</g>
<g>
	<path style="fill:#C8D2DC;" d="M185.381,140.488h-0.01V0h0.01c82.722,0,166.472,24.126,166.472,70.239
		C351.854,116.362,268.103,140.488,185.381,140.488z"/>
	<path style="fill:#C8D2DC;" d="M351.854,173.668v85.77c0,46.113-83.751,70.249-166.472,70.249h-0.01v-93.245h0.01
		C263.386,236.441,343.119,214.784,351.854,173.668z"/>
	<path style="fill:#C8D2DC;" d="M351.854,356.281v85.47c0,46.123-83.751,70.249-166.472,70.249h-0.01v-92.956h0.01
		C263.386,419.044,343.119,397.397,351.854,356.281z"/>
</g>
<path style="fill:#00B6BE;" d="M493.101,202.421v132.752c0,20.168-11.083,38.358-28.973,47.602l-61.204,35.969l-0.43,0.22
	c-7.576,3.828-15.891,5.737-24.206,5.737s-16.63-1.909-24.216-5.737l-0.84-0.46l-60.794-35.729
	c-17.88-9.245-28.973-27.434-28.973-47.602V202.421c0-10.464,7.016-19.648,17.09-22.427l93.415-27.294
	c1.409-0.38,2.868-0.56,4.317-0.56c1.459,0,2.898,0.19,4.307,0.56l0.37,0.1l93.055,27.194
	C486.095,182.773,493.101,191.958,493.101,202.421z"/>
<path style="fill:#007A9F;" d="M493.101,202.421v132.752c0,20.168-11.083,38.358-28.973,47.602l-61.204,35.969l-0.43,0.22
	c-7.576,3.828-15.891,5.737-24.206,5.737v-272.56c1.459,0,2.898,0.19,4.307,0.56l0.37,0.1l93.056,27.194
	C486.095,182.773,493.101,191.958,493.101,202.421z"/>
<g>
</g>
<g>
</g>
<g>
</g>
<g>
</g>
<g>
</g>
<g>
</g>
<g>
</g>
<g>
</g>
<g>
</g>
<g>
</g>
<g>
</g>
<g>
</g>
<g>
</g>
<g>
</g>
<g>
</g>
</svg>
