<?xml version="1.0" encoding="iso-8859-1"?>
<!-- Generator: Adobe Illustrator 19.0.0, SVG Export Plug-In . SVG Version: 6.00 Build 0)  -->
<svg version="1.1" id="Capa_1" xmlns="http://www.w3.org/2000/svg" xmlns:xlink="http://www.w3.org/1999/xlink" x="0px" y="0px"
	 viewBox="0 0 512 512" style="enable-background:new 0 0 512 512;" xml:space="preserve">
<path style="fill:#F29A36;" d="M406,272H196c-8.291,0-15-7.709-15-16V76c0-8.291,6.709-15,15-15h210c8.291,0,15,6.709,15,15v180
	C421,264.291,414.291,272,406,272z"/>
<path style="fill:#E7812E;" d="M406,61h-75v211h75c8.291,0,15-7.709,15-16V76C421,67.709,414.291,61,406,61z"/>
<path style="fill:#F9BC35;" d="M346,151h-90c-8.284,0-15-6.716-15-15V61h120v75C361,144.284,354.284,151,346,151z"/>
<path style="fill:#A6673A;" d="M346,211h-90c-8.291,0-15-6.709-15-15s6.709-15,15-15h90c8.291,0,15,6.709,15,15S354.291,211,346,211
	z"/>
<path style="fill:#99522E;" d="M346,181h-15v30h15c8.291,0,15-6.709,15-15S354.291,181,346,181z"/>
<path style="fill:#F39E31;" d="M331,151h15c8.284,0,15-6.716,15-15V61h-30V151z"/>
<path style="fill:#F9BC35;" d="M466,452H196c-8.284,0-15-6.716-15-15V241h285c8.284,0,15,6.716,15,15v181
	C481,445.284,474.284,452,466,452z"/>
<path style="fill:#F39E31;" d="M466,241H331v211h135c8.284,0,15-6.716,15-15V256C481,247.714,474.284,241,466,241z"/>
<path style="fill:#5C5F66;" d="M497,452H196c-8.291,0-15-6.709-15-15s6.709-15,15-15h301c8.291,0,15,6.709,15,15
	S505.291,452,497,452z"/>
<path style="fill:#53565C;" d="M497,422H331v30h166c8.291,0,15-6.709,15-15S505.291,422,497,422z"/>
<path style="fill:#5C5F66;" d="M136,392c-8.291,0-15-6.709-15-15V76c0-8.276-7.724-16-16-16H75c-8.291,0-15-6.709-15-15
	s6.709-15,15-15h30c24.814,0,46,21.186,46,46v301C151,385.291,144.291,392,136,392z"/>
<path style="fill:#7F838C;" d="M45,90C20.186,90,0,69.814,0,45S20.186,0,45,0s45,20.186,45,45S69.814,90,45,90z"/>
<path style="fill:#FFDE33;" d="M376,332h-90c-8.284,0-15-6.716-15-15v-76h120v76C391,325.284,384.284,332,376,332z"/>
<path style="fill:#B36F3E;" d="M376,392h-90c-8.291,0-15-6.709-15-15s6.709-15,15-15h90c8.291,0,15,6.709,15,15S384.291,392,376,392
	z"/>
<path style="fill:#7F838C;" d="M406,512c-24.814,0-45-20.186-45-45s20.186-45,45-45s45,20.186,45,45S430.814,512,406,512z"/>
<path style="fill:#757982;" d="M451,467c0-24.814-20.186-45-45-45v90C430.814,512,451,491.814,451,467z"/>
<path style="fill:#E6EEFF;" d="M406,452c-8.276,0-15,6.724-15,15s6.724,15,15,15s15-6.724,15-15S414.276,452,406,452z"/>
<path style="fill:#DAE2F2;" d="M421,467c0-8.276-6.724-15-15-15v30C414.276,482,421,475.276,421,467z"/>
<path style="fill:#7F838C;" d="M136,512c-41.353,0-75-33.647-75-75s33.647-75,75-75s75,33.647,75,75S177.353,512,136,512z"/>
<path style="fill:#757982;" d="M211,437c0-41.353-33.647-75-75-75v150C177.353,512,211,478.353,211,437z"/>
<path style="fill:#E6EEFF;" d="M136,392c-24.814,0-45,20.186-45,45s20.186,45,45,45s45-20.186,45-45S160.814,392,136,392z"/>
<path style="fill:#DAE2F2;" d="M181,437c0-24.814-20.186-45-45-45v90C160.814,482,181,461.814,181,437z"/>
<path style="fill:#5C5F66;" d="M151,437c0,8.399-6.599,15-15,15s-15-6.601-15-15c0-8.401,6.599-15,15-15S151,428.599,151,437z"/>
<path style="fill:#53565C;" d="M151,437c0,8.399-6.599,15-15,15v-30C144.401,422,151,428.599,151,437z"/>
<path style="fill:#A6673A;" d="M376,362h-45v30h45c8.291,0,15-6.709,15-15S384.291,362,376,362z"/>
<path style="fill:#FFBC33;" d="M331,332h45c8.284,0,15-6.716,15-15v-76h-60V332z"/>
<g>
</g>
<g>
</g>
<g>
</g>
<g>
</g>
<g>
</g>
<g>
</g>
<g>
</g>
<g>
</g>
<g>
</g>
<g>
</g>
<g>
</g>
<g>
</g>
<g>
</g>
<g>
</g>
<g>
</g>
</svg>
