<?xml version="1.0" encoding="iso-8859-1"?>
<!-- Generator: Adobe Illustrator 19.0.0, SVG Export Plug-In . SVG Version: 6.00 Build 0)  -->
<svg version="1.1" id="Capa_1" xmlns="http://www.w3.org/2000/svg" xmlns:xlink="http://www.w3.org/1999/xlink" x="0px" y="0px"
	 viewBox="0 0 512 512" style="enable-background:new 0 0 512 512;" xml:space="preserve">
<path style="fill:#FFBFAB;" d="M61.758,258.792c-15.207,0-28.659-10.819-31.987-25.724c-1.803-8.081-9.821-13.175-17.897-11.365
	c-8.08,1.804-13.169,9.816-11.365,17.897c3.066,13.739,10.783,26.214,21.727,35.124c11.132,9.062,25.167,14.053,39.521,14.053
	c8.279,0,14.991-6.712,14.991-14.991C76.749,265.505,70.037,258.792,61.758,258.792z"/>
<path style="fill:#FFA17A;" d="M464.653,247.153h-18.345c-4.267-8.995-9.6-18.447-15.854-26.874l34.92-15.301
	c5.433-2.398,8.937-7.696,8.937-13.633c0-33.75-27.36-61.125-60.99-61.125h-36.217c-22.871,0-43.743,12.993-54.105,32.981h-134.29
	c-78.268,0-141.587,63.898-141.587,142.494v13.598c0,52.343,27.984,100.503,73.957,125.293v52.128c0,8.279,6.621,15.286,14.9,15.286
	h60.918c8.279,0,15.129-7.007,15.129-15.286v-34.685h83.952v34.685c0,8.279,6.74,15.286,15.019,15.286h60.918
	c8.279,0,15.01-7.007,15.01-15.286v-53.533c28.983-16.395,50.73-42.117,62.424-73.099h15.304c26.026,0,47.201-21.302,47.201-47.412
	v-27.711C511.853,268.849,490.679,247.153,464.653,247.153z"/>
<path style="fill:#FFBFAB;" d="M255.965,163.201h-67.256c-78.268,0-141.587,63.898-141.587,142.494v13.598
	c0,52.343,27.984,100.503,73.957,125.293v52.128c0,8.279,6.621,15.286,14.9,15.286h60.918c8.279,0,15.129-7.007,15.129-15.286
	v-34.685h43.939V163.201z"/>
<path style="fill:#FF9F00;" d="M167.155,0C93.644,0,33.84,59.862,33.84,133.442s59.805,133.442,133.315,133.442
	c73.51,0,133.314-59.862,133.314-133.442S240.664,0,167.155,0z"/>
<path style="fill:#FFD154;" d="M167.155,0C93.644,0,33.84,59.862,33.84,133.442s59.805,133.442,133.315,133.442V0z"/>
<path style="fill:#009954;" d="M178.762,117.227h-23.216c-7.923,0-14.369-6.551-14.369-14.492c0-7.939,6.445-14.492,14.369-14.492
	h34.372c1.771,0,3.213,1.659,3.213,3.442c0,8.279,6.712,15.095,14.991,15.095c8.279,0,14.991-6.869,14.991-15.148
	c0-18.315-14.891-33.373-33.196-33.373h-7.874v-7.103c0-8.279-6.712-14.991-14.991-14.991c-8.279,0-14.991,6.712-14.991,14.991
	v7.664c-22.987,1.737-40.917,20.79-40.917,44.124c0,24.472,19.947,44.266,44.402,44.266h23.216c7.923,0,14.369,6.552,14.369,14.492
	s-6.445,14.492-14.369,14.492h-34.371c-1.772,0-3.214-1.424-3.214-3.207c0-8.279-6.712-14.978-14.991-14.978
	c-8.279,0-14.991,6.692-14.991,14.972c0,18.315,14.891,33.197,33.197,33.197h7.67v9.549c0,8.279,6.712,14.991,14.991,14.991
	c8.279,0,14.991-6.712,14.991-14.991v-9.639c22.987-1.738,41.018-21.026,41.018-44.358
	C223.062,137.255,203.218,117.227,178.762,117.227z"/>
<g>
	<path style="fill:#00F085;" d="M155.546,147.21h11.608v-29.983h-11.608c-7.923,0-14.369-6.551-14.369-14.492
		c0-7.939,6.445-14.492,14.369-14.492h11.608l-0.103-52.077c-8.279,0-14.991,6.712-14.991,14.991v7.664
		c-22.987,1.737-40.917,20.79-40.917,44.124C111.143,127.418,131.091,147.21,155.546,147.21z"/>
	<path style="fill:#00F085;" d="M167.128,176.193h-22.737c-1.772,0-3.214-1.424-3.214-3.207c0-8.279-6.712-14.978-14.991-14.978
		c-8.279,0-14.991,6.693-14.991,14.972c0,18.315,14.891,33.197,33.197,33.197h7.67v9.549c0,8.279,6.712,14.991,14.991,14.991
		L167.128,176.193z"/>
</g>
<circle style="fill:#BB5D4C;" cx="366.808" cy="252.295" r="14.937"/>
<g>
</g>
<g>
</g>
<g>
</g>
<g>
</g>
<g>
</g>
<g>
</g>
<g>
</g>
<g>
</g>
<g>
</g>
<g>
</g>
<g>
</g>
<g>
</g>
<g>
</g>
<g>
</g>
<g>
</g>
</svg>
