<svg height="512pt" viewBox="0 -5 512.00001 512" width="512pt" xmlns="http://www.w3.org/2000/svg"><path d="m47.40625 350.816406h56.890625v85.332032h-56.890625zm0 0" fill="#6cbae5"/><path d="m47.40625 388.742188h56.890625v47.40625h-56.890625zm0 0" fill="#f7ba61"/><path d="m161.183594 293.925781h56.890625v142.222657h-56.890625zm0 0" fill="#6cbae5"/><path d="m161.183594 360.296875h56.890625v75.851563h-56.890625zm0 0" fill="#f7ba61"/><path d="m274.964844 227.554688h56.886718v208.59375h-56.886718zm0 0" fill="#6cbae5"/><path d="m274.964844 322.371094h56.886718v113.777344h-56.886718zm0 0" fill="#f7ba61"/><path d="m388.742188 170.667969h56.886718v265.480469h-56.886718zm0 0" fill="#6cbae5"/><path d="m388.742188 284.445312h56.886718v151.703126h-56.886718zm0 0" fill="#f7ba61"/><path d="m512 502.519531h-512v-18.964843h493.035156v-360.296876h18.964844zm0 0" fill="#3b869e"/><path d="m331.851562 94.816406h-47.40625c-5.238281 0-9.480468 4.242188-9.480468 9.480469 0 5.234375 4.242187 9.480469 9.480468 9.480469h22.914063c-28.535156 34.847656-62.085937 65.265625-99.554687 90.261718-33.734376 22.492188-70.316407 40.386719-108.78125 53.210938l-54.613282 18.207031c-4.972656 1.652344-7.664062 7.027344-6.011718 12.003907 1.65625 4.972656 7.03125 7.664062 12.003906 6.007812l54.625-18.203125c40.058594-13.355469 78.164062-31.988281 113.304687-55.410156 39.175781-26.152344 74.242188-57.996094 104.039063-94.484375v26.332031c0 5.234375 4.242187 9.480469 9.480468 9.480469 5.238282 0 9.480469-4.246094 9.480469-9.480469v-47.40625c0-5.238281-4.242187-9.480469-9.480469-9.480469zm0 0" fill="#ea6b65"/><path d="m464.601562 47.40625c0 26.183594-21.226562 47.410156-47.40625 47.410156-26.183593 0-47.40625-21.226562-47.40625-47.410156 0-26.179688 21.222657-47.40625 47.40625-47.40625 26.179688 0 47.40625 21.226562 47.40625 47.40625zm0 0" fill="#f7ba61"/><path d="m417.183594 66.371094c-5.234375 0-9.480469-4.246094-9.480469-9.484375v-18.960938c0-5.238281 4.246094-9.480469 9.480469-9.480469 5.238281 0 9.484375 4.242188 9.484375 9.480469v18.960938c0 5.238281-4.246094 9.484375-9.484375 9.484375zm0 0" fill="#ea9d2d"/></svg>