<?xml version="1.0" encoding="iso-8859-1"?>
<!-- Generator: Adobe Illustrator 19.0.0, SVG Export Plug-In . SVG Version: 6.00 Build 0)  -->
<svg version="1.1" id="Capa_1" xmlns="http://www.w3.org/2000/svg" xmlns:xlink="http://www.w3.org/1999/xlink" x="0px" y="0px"
	 viewBox="0 0 512 512" style="enable-background:new 0 0 512 512;" xml:space="preserve">
<polygon style="fill:#B7E5FF;" points="501.444,60.522 79.075,60.522 138.203,332.491 441.951,332.491 "/>
<path style="fill:#4DAAF5;" d="M148.733,340.991H448.75L512,52.023H85.925L74.877,1.028H0v16.998h61.142l22.149,101.989
	l3.697,16.998l11.049,50.994l3.697,16.998L112.782,256l3.697,16.998l29.56,135.985H450.45v-16.998H159.833L148.733,340.991z
	 M280.469,323.992h-34.26l-1.589-50.994h35.849V323.992z M280.469,256h-36.384l-1.589-50.994h37.974V256z M280.469,188.008H241.96
	l-1.589-50.994h40.099V188.008z M435.152,323.992h-34.566l6.374-50.994h39.308L435.152,323.992z M432.491,69.021h58.431
	l-11.151,50.994h-53.689L432.491,69.021z M423.992,137.013h52.057l-11.151,50.994h-47.314L423.992,137.013z M461.176,205.006
	L450.025,256h-40.94l6.374-50.994H461.176z M356.697,69.021h58.643l-6.374,50.994h-53.867L356.697,69.021z M354.572,137.013h52.261
	l-6.374,50.994h-47.484L354.572,137.013z M352.447,205.006h45.895L391.968,256h-41.118L352.447,205.006z M350.323,272.998h39.512
	l-6.374,50.994h-34.736L350.323,272.998z M297.467,69.021h42.232l-1.589,50.994h-40.642V69.021z M297.467,137.013h40.107
	l-1.589,50.994h-38.518V137.013z M297.467,205.006h37.982L333.86,256h-36.393V205.006z M297.467,272.998h35.858l-1.589,50.994
	h-34.268V272.998z M280.469,69.021v50.994h-40.634l-1.589-50.994H280.469z M229.211,323.992h-34.727l-6.374-50.994h39.512
	L229.211,323.992z M227.086,256h-41.101l-6.374-50.994h45.895L227.086,256z M224.961,188.008h-47.476l-6.374-50.994h52.261
	L224.961,188.008z M221.247,69.021l1.598,50.994h-53.859l-6.374-50.994H221.247z M145.487,69.021l6.374,50.994h-51.156
	L89.657,69.021H145.487z M104.411,137.013h49.575l6.374,50.994h-44.875L104.411,137.013z M119.191,205.006h43.294L168.859,256
	h-38.586L119.191,205.006z M145.053,323.992l-11.049-50.994h37.013l6.374,50.994H145.053z"/>
<path style="fill:#FEC007;" d="M203.977,510.972c-23.466,0-42.495-19.029-42.495-42.495c0-23.466,19.029-42.495,42.495-42.495
	s42.495,19.029,42.495,42.495C246.447,491.934,227.435,510.946,203.977,510.972z M203.977,442.979
	c-14.083,0-25.497,11.414-25.497,25.497s11.414,25.497,25.497,25.497s25.497-11.414,25.497-25.497S218.06,442.979,203.977,442.979z"
	/>
<rect y="187.999" style="fill:#3F51B4;" width="33.996" height="16.998"/>
<path style="fill:#FEC007;" d="M390.956,510.972c-23.466,0-42.495-19.029-42.495-42.495c0-23.466,19.029-42.495,42.495-42.495
	s42.495,19.029,42.495,42.495C433.426,491.934,414.414,510.946,390.956,510.972z M390.956,442.979
	c-14.083,0-25.497,11.414-25.497,25.497s11.414,25.497,25.497,25.497s25.497-11.414,25.497-25.497S405.039,442.979,390.956,442.979z
	"/>
<g>
	<polygon style="fill:#3F51B4;" points="16.998,120.015 16.998,137.013 87.013,137.013 83.316,120.015 	"/>
	<polygon style="fill:#3F51B4;" points="67.992,188.008 67.992,205.006 101.793,205.006 98.096,188.008 	"/>
	<polygon style="fill:#3F51B4;" points="33.996,256 33.996,272.998 116.573,272.998 112.876,256 	"/>
</g>
<path style="fill:#A6D5FA;" d="M133.758,312.051l4.445,20.44h303.748l59.493-271.97h-11.117
	C426.865,203.637,289.869,300.28,133.758,312.051z"/>
<path style="fill:#2195F2;" d="M512,52.023h-17.941c-2.397,5.737-4.946,11.389-7.581,16.998h4.403l-11.151,50.994h-21.715
	c-3.757,5.762-7.649,11.431-11.669,16.998h29.67l-11.117,50.994h-47.314l2.235-17.848c-10.87,12.273-22.438,23.908-34.642,34.846
	h13.157L391.959,256h-41.11l0.748-23.891c-5.669,4.139-11.457,8.142-17.372,11.992L333.851,256h-18.927
	c-11.176,6.493-22.667,12.485-34.455,17.976v50.017h-34.26l-1.105-35.458c-5.558,1.989-11.151,3.927-16.82,5.694l0.926,29.747
	h-34.727l-2.55-20.296c-5.533,1.198-11.117,2.244-16.726,3.221l2.142,17.092h-32.296l-2.737-12.596
	c-5.669,0.535-11.372,0.986-17.109,1.3l20.925,96.286H450.45v-16.998H159.833l-11.049-50.994H448.75L512,52.023z M331.727,323.992
	h-34.26v-50.994h35.858L331.727,323.992z M383.452,323.992h-34.727l1.598-50.994h39.512L383.452,323.992z M415.451,205.006h45.682
	L449.982,256h-40.897L415.451,205.006z M435.152,323.992h-34.566l6.374-50.994h39.308L435.152,323.992z"/>
<g>
</g>
<g>
</g>
<g>
</g>
<g>
</g>
<g>
</g>
<g>
</g>
<g>
</g>
<g>
</g>
<g>
</g>
<g>
</g>
<g>
</g>
<g>
</g>
<g>
</g>
<g>
</g>
<g>
</g>
</svg>
